# xmcd
#
# Track frame offsets: 
#        150
#        19230
#        42255
#
# Disc length: 825 seconds
#
# Revision: 3
# Processed by: cddbd v1.5.2PL0 Copyright (c) Steve Scherf et al.
# Submitted via: ExactAudioCopy v1.0b2
#
DISCID=1d033703
DTITLE=Clive Griffin  - Commitment Of The Heart
DYEAR=1994
DGENRE=Blues
TTITLE0=Commitment Of The Heart (Radio Edit)
TTITLE1=Commitment Of The Heart (LP Version)
TTITLE2=Sensual Feelings
EXTD=
EXTT0=
EXTT1=
EXTT2=
PLAYORDER=
